<svg width="16" height="16" viewBox="0 0 16 16" fill="none" xmlns="http://www.w3.org/2000/svg">
<g id="Explicit">
<path id="Vector" d="M5.77648 11.7037H10.2209V10.2222H7.25796V8.74075H10.2209V7.25927H7.25796V5.77779H10.2209V4.29631H5.77648V11.7037ZM2.81351 14.6667C2.40611 14.6667 2.05746 14.5217 1.76759 14.2319C1.47771 13.942 1.33253 13.5931 1.33203 13.1852V2.81482C1.33203 2.40742 1.47722 2.05878 1.76759 1.7689C2.05796 1.47902 2.4066 1.33384 2.81351 1.33334H13.1839C13.5913 1.33334 13.9402 1.47853 14.2305 1.7689C14.5209 2.05927 14.6659 2.40791 14.6654 2.81482V13.1852C14.6654 13.5926 14.5204 13.9415 14.2305 14.2319C13.9407 14.5222 13.5918 14.6672 13.1839 14.6667H2.81351Z" fill="#9BA2B0"/>
</g>
</svg>
