<svg width="16" height="16" viewBox="0 0 16 16" fill="none" xmlns="http://www.w3.org/2000/svg">
<g id="Opc&#204;&#167;o&#204;&#131;es vertical">
<g id="Vector">
<path d="M8.0013 9.33333C8.73768 9.33333 9.33464 8.73638 9.33464 8C9.33464 7.26362 8.73768 6.66667 8.0013 6.66667C7.26492 6.66667 6.66797 7.26362 6.66797 8C6.66797 8.73638 7.26492 9.33333 8.0013 9.33333Z" fill="#C6CAD2"/>
<path d="M8.0013 4.66667C8.73768 4.66667 9.33464 4.06971 9.33464 3.33333C9.33464 2.59695 8.73768 2 8.0013 2C7.26492 2 6.66797 2.59695 6.66797 3.33333C6.66797 4.06971 7.26492 4.66667 8.0013 4.66667Z" fill="#C6CAD2"/>
<path d="M8.0013 14C8.73768 14 9.33464 13.403 9.33464 12.6667C9.33464 11.9303 8.73768 11.3333 8.0013 11.3333C7.26492 11.3333 6.66797 11.9303 6.66797 12.6667C6.66797 13.403 7.26492 14 8.0013 14Z" fill="#C6CAD2"/>
</g>
</g>
</svg>
