<svg width="16" height="16" viewBox="0 0 16 16" fill="none" xmlns="http://www.w3.org/2000/svg">
<g id="Check ci&#204;&#129;rculo preenchido">
<path id="Vector" fill-rule="evenodd" clip-rule="evenodd" d="M0.667969 8.00002C0.667969 3.95335 3.95464 0.666687 8.0013 0.666687C12.048 0.666687 15.3346 3.95335 15.3346 8.00002C15.3346 12.0467 12.048 15.3334 8.0013 15.3334C3.95464 15.3334 0.667969 12.0467 0.667969 8.00002ZM11.1594 6.45051C11.4082 6.17909 11.3899 5.75738 11.1185 5.50859C10.847 5.25979 10.4253 5.27813 10.1765 5.54954L6.98036 9.03627L5.80604 7.86195C5.54569 7.6016 5.12358 7.6016 4.86323 7.86195C4.60288 8.1223 4.60288 8.54441 4.86323 8.80476L6.5299 10.4714C6.65847 10.6 6.83399 10.6705 7.01578 10.6665C7.19758 10.6626 7.36987 10.5845 7.49274 10.4505L11.1594 6.45051Z" fill="white"/>
</g>
</svg>
